<svg width="80" height="80" viewBox="0 0 80 80" fill="none" xmlns="http://www.w3.org/2000/svg">
  <!-- Background -->
  <rect width="80" height="80" fill="#000000"/>
  
  <!-- Sparkle left -->
  <path d="M15 20 L17 15 L19 20 L24 22 L19 24 L17 29 L15 24 L10 22 Z" fill="#FFD700"/>
  
  <!-- Sparkle right -->
  <path d="M61 20 L63 15 L65 20 L70 22 L65 24 L63 29 L61 24 L56 22 Z" fill="#FFD700"/>
  
  <!-- Surgical Cap -->
  <path d="M25 15 L55 15 L52 25 L28 25 Z" fill="#B3D9FF" stroke="#4A90E2" stroke-width="1"/>
  
  <!-- Head and Torso -->
  <ellipse cx="40" cy="35" rx="15" ry="18" fill="#FFDBAC"/>
  <rect x="30" y="50" width="20" height="15" fill="#FFDBAC"/>
  
  <!-- Face Features -->
  <!-- Eyes -->
  <path d="M35 32 Q36 31 37 32" stroke="#000000" stroke-width="1.5" fill="none"/>
  <path d="M43 32 Q44 31 45 32" stroke="#000000" stroke-width="1.5" fill="none"/>
  <!-- Nose -->
  <line x1="40" y1="32" x2="40" y2="36" stroke="#000000" stroke-width="1"/>
  <!-- Mouth -->
  <path d="M35 40 Q40 43 45 40" stroke="#000000" stroke-width="1.5" fill="none"/>
  
  <!-- Surgical Markings -->
  <!-- Forehead marks -->
  <line x1="35" y1="25" x2="37" y2="27" stroke="#000000" stroke-width="0.5" stroke-dasharray="1,1"/>
  <line x1="40" y1="24" x2="42" y2="26" stroke="#000000" stroke-width="0.5" stroke-dasharray="1,1"/>
  <line x1="45" y1="25" x2="47" y2="27" stroke="#000000" stroke-width="0.5" stroke-dasharray="1,1"/>
  <!-- Cheek marks -->
  <line x1="28" y1="35" x2="30" y2="37" stroke="#000000" stroke-width="0.5" stroke-dasharray="1,1"/>
  <line x1="50" y1="35" x2="52" y2="37" stroke="#000000" stroke-width="0.5" stroke-dasharray="1,1"/>
  <!-- Jawline marks -->
  <line x1="30" y1="48" x2="32" y2="50" stroke="#000000" stroke-width="0.5" stroke-dasharray="1,1"/>
  <line x1="48" y1="48" x2="50" y2="50" stroke="#000000" stroke-width="0.5" stroke-dasharray="1,1"/>
  
  <!-- Syringe (left side) -->
  <rect x="20" y="30" width="8" height="2" rx="1" fill="#DC143C"/>
  <rect x="20" y="30" width="2" height="2" fill="#FFFFFF"/>
  <line x1="28" y1="31" x2="30" y2="31" stroke="#000000" stroke-width="1"/>
  <line x1="22" y1="28" x2="22" y2="34" stroke="#000000" stroke-width="0.5"/>
  
  <!-- Scalpel (right side) -->
  <path d="M52 45 L58 50 L56 52 L50 47 Z" fill="#C0C0C0"/>
  <rect x="50" y="47" width="6" height="1" fill="#FFFFFF"/>
  <line x1="52" y1="45" x2="58" y2="50" stroke="#000000" stroke-width="0.5"/>
  
  <!-- Surgical Table/Drape -->
  <rect x="25" y="65" width="30" height="3" fill="#B3D9FF"/>
</svg>

